#!OML:ASF H:\Martial Arts Walks\Project 1\Capture day 1\Session 1\male.ASF
:FULLY-SPECIFIED
:DEGREES
1251
root -2.47762 14.2239 14.4074 9.2241 49.5281 5.29496
lowerback 15.7309 -0.470307 -9.08706
upperback -2.73296 -2.22474 2.03352
thorax -11.5179 -0.344579 8.00938
lowerneck 3.60183 -13.7468 -15.0404
upperneck -0.50012 -18.9707 11.8892
head 1.8313 -9.56584 5.35992
rclavicle 3.38431e-014 -1.35174e-014
rhumerus 3.10199 -12.4567 -61.5971
rradius 86.712
rwrist 20.964
rhand -46.931 -37.4599
rfingers 7.12502
rthumb -19.6409 -66.4877
lclavicle 3.38431e-014 -1.35174e-014
lhumerus -55.5502 -37.996 115.316
lradius 106.252
lwrist 74.2926
lhand 19.1565 42.7975
lfingers 7.12502
lthumb 43.7485 -293.226
rfemur -58.1627 -30.6504 12.8726
rtibia 74.2259
rfoot -15.3904 6.14687
rtoes -4.14834
lfemur -16.8311 24.8247 -2.15483
ltibia 61.1815
lfoot -23.3837 20.4233
ltoes -30.6891
1252
root -2.46951 14.2279 14.3576 9.04508 49.7532 5.13964
lowerback 15.7116 -0.449109 -9.10167
upperback -2.69844 -2.19388 2.051
thorax -11.4723 -0.332448 8.02792
lowerneck 3.7019 -13.8361 -15.1107
upperneck -0.587541 -19.1055 12.0302
head 1.82823 -9.63634 5.40822
rclavicle 2.1419e-014 -4.33351e-014
rhumerus 3.12267 -12.9865 -61.7079
rradius 86.8404
rwrist 20.7765
rhand -46.8741 -37.4047
rfingers 7.12502
rthumb -19.5862 -66.4381
lclavicle 2.1419e-014 -4.33351e-014
lhumerus -55.7094 -38.0037 115.313
lradius 106.5
lwrist 74.4132
lhand 19.0352 42.9995
lfingers 7.12502
lthumb 43.6353 -292.983
rfemur -58.0081 -30.6714 12.8384
rtibia 73.9682
rfoot -14.8876 5.97827
rtoes -3.54847
lfemur -17.1314 24.8941 -2.19157
ltibia 61.5274
lfoot -23.6289 20.2723
ltoes -30.5528
1253
root -2.45932 14.2294 14.3094 8.87183 49.9143 4.99069
lowerback 15.6737 -0.422254 -9.07962
upperback -2.67299 -2.14938 2.04471
thorax -11.4307 -0.316873 7.99437
lowerneck 3.8031 -13.9192 -15.1732
upperneck -0.616791 -19.2347 12.1483
head 1.8387 -9.70436 5.44715
rclavicle -8.16508e-014 -2.42517e-014
rhumerus 3.15115 -13.4546 -61.8247
rradius 86.9071
rwrist 20.7753
rhand -46.7698 -37.305
rfingers 7.12502
rthumb -19.486 -66.3485
lclavicle -8.16508e-014 -2.42517e-014
lhumerus -55.8861 -38.0921 115.335
lradius 106.707
lwrist 74.5918
lhand 18.837 43.2644
lfingers 7.12502
lthumb 43.4502 -292.651
rfemur -58.0051 -30.7856 12.9027
rtibia 73.8124
rfoot -14.3124 5.75401
rtoes -2.71945
lfemur -17.3862 25.0256 -2.21976
ltibia 61.8721
lfoot -23.8805 20.1266
ltoes -30.4498
1254
root -2.44723 14.2288 14.2624 8.69529 50.0164 4.84095
lowerback 15.6265 -0.390781 -9.02011
upperback -2.65842 -2.09298 2.01945
thorax -11.4 -0.297934 7.91479
lowerneck 3.9043 -13.9928 -15.227
upperneck -0.587442 -19.3536 12.2366
head 1.86153 -9.76751 5.47496
rclavicle -2.73329e-014 3.97569e-015
rhumerus 3.185 -13.8491 -61.9398
rradius 86.9088
rwrist 20.9202
rhand -46.6607 -37.218
rfingers 7.12502
rthumb -19.381 -66.2721
lclavicle -2.73329e-014 3.97569e-015
lhumerus -56.0709 -38.2391 115.375
lradius 106.857
lwrist 74.7399
lhand 18.6197 43.5415
lfingers 7.12502
lthumb 43.2472 -292.3
rfemur -58.1241 -30.9889 13.0645
rtibia 73.7437
rfoot -13.7069 5.49814
rtoes -1.63333
lfemur -17.593 25.2068 -2.23464
ltibia 62.212
lfoot -24.1322 19.9947
ltoes -30.3758
1255
root -2.43374 14.2267 14.2167 8.50979 50.0687 4.68687
lowerback 15.5813 -0.355921 -8.92886
upperback -2.65518 -2.02786 1.98185
thorax -11.3861 -0.276035 7.80144
lowerneck 4.0033 -14.0546 -15.2704
upperneck -0.507428 -19.4583 12.2906
head 1.89342 -9.8235 5.49075
rclavicle -1.43075e-013 2.78299e-015
rhumerus 3.22562 -14.1643 -62.0461
rradius 86.8484
rwrist 21.1567
rhand -46.5766 -37.1833
rfingers 7.12502
rthumb -19.3002 -66.2455
lclavicle -1.43075e-013 2.78299e-015
lhumerus -56.2517 -38.4186 115.425
lradius 106.946
lwrist 74.8128
lhand 18.4122 43.7913
lfingers 7.12502
lthumb 43.0532 -291.982
rfemur -58.3235 -31.2636 13.3081
rtibia 73.7273
rfoot -13.1131 5.22257
rtoes -0.36017
lfemur -17.7539 25.4198 -2.23534
ltibia 62.5438
lfoot -24.3766 19.8849
ltoes -30.3178
1256
root -2.41946 14.2235 14.1725 8.31543 50.0831 4.52981
lowerback 15.5466 -0.319205 -8.81818
upperback -2.66226 -1.95848 1.93911
thorax -11.3913 -0.25207 7.67106
lowerneck 4.09768 -14.1028 -15.3019
upperneck -0.391454 -19.5449 12.3108
head 1.92968 -9.87036 5.49521
rclavicle 3.88127e-014 1.15295e-014
rhumerus 3.27549 -14.4017 -62.1401
rradius 86.7362
rwrist 21.4353
rhand -46.5289 -37.2182
rfingers 7.12502
rthumb -19.2543 -66.2851
lclavicle 3.88127e-014 1.15295e-014
lhumerus -56.4141 -38.6042 115.476
lradius 106.977
lwrist 74.8117
lhand 18.2146 43.9922
lfingers 7.12502
lthumb 42.8684 -291.716
rfemur -58.5572 -31.5846 13.606
rtibia 73.7206
rfoot -12.5675 4.93661
rtoes 0.976478
lfemur -17.876 25.6455 -2.22533
ltibia 62.8651
lfoot -24.6069 19.8015
ltoes -30.2568
1257
root -2.40507 14.2198 14.13 8.11542 50.073 4.3719
lowerback 15.5263 -0.282502 -8.70137
upperback -2.67753 -1.88946 1.89815
thorax -11.4139 -0.227251 7.54034
lowerneck 4.18581 -14.1371 -15.3217
upperneck -0.258454 -19.6118 12.3031
head 1.96534 -9.90711 5.49096
rclavicle 5.2181e-014 -1.39149e-014
rhumerus 3.33728 -14.572 -62.2206
rradius 86.5858
rwrist 21.7182
rhand -46.5089 -37.3074
rfingers 7.12502
rthumb -19.2351 -66.3762
lclavicle 5.2181e-014 -1.39149e-014
lhumerus -56.5442 -38.7727 115.521
lradius 106.959
lwrist 74.7687
lhand 18.0142 44.1413
lfingers 7.12502
lthumb 42.6809 -291.501
rfemur -58.7808 -31.9253 13.9262
rtibia 73.6844
rfoot -12.1002 4.65313
rtoes 2.23679
lfemur -17.9711 25.8668 -2.20932
ltibia 63.1754
lfoot -24.8179 19.7454
ltoes -30.1738
1258
root -2.3911 14.2159 14.0897 7.91591 50.052 4.21661
lowerback 15.518 -0.247633 -8.59084
upperback -2.69761 -1.8247 1.86422
thorax -11.4476 -0.202918 7.423
lowerneck 4.26694 -14.159 -15.3315
upperneck -0.127982 -19.6599 12.2784
head 1.9961 -9.93417 5.48195
rclavicle 8.17005e-014 9.14409e-015
rhumerus 3.41257 -14.6939 -62.2886
rradius 86.4125
rwrist 21.9837
rhand -46.5005 -37.4134
rfingers 7.12502
rthumb -19.227 -66.483
lclavicle 8.17005e-014 9.14409e-015
lhumerus -56.63 -38.909 115.553
lradius 106.905
lwrist 74.7259
lhand 17.8014 44.2502
lfingers 7.12502
lthumb 42.4817 -291.323
rfemur -58.9583 -32.2631 14.2365
rtibia 73.5912
rfoot -11.7305 4.3919
rtoes 3.30917
lfemur -18.0531 26.0705 -2.19336
ltibia 63.4757
lfoot -25.0061 19.7149
ltoes -30.0582
1259
root -2.37795 14.2119 14.0519 7.72075 50.0311 4.06317
lowerback 15.5155 -0.216638 -8.49315
upperback -2.71886 -1.76706 1.84098
thorax -11.4839 -0.18048 7.32715
lowerneck 4.34193 -14.1708 -15.3341
upperneck -0.0179399 -19.6919 12.2499
head 2.0185 -9.95285 5.47283
rclavicle -1.99033e-014 -2.38542e-015
rhumerus 3.50045 -14.7888 -62.348
rradius 86.2317
rwrist 22.2253
rhand -46.4879 -37.5
rfingers 7.12502
rthumb -19.2149 -66.5708
lclavicle -1.99033e-014 -2.38542e-015
lhumerus -56.6655 -39.005 115.568
lradius 106.83
lwrist 74.7169
lhand 17.5819 44.3358
lfingers 7.12502
lthumb 42.2761 -291.167
rfemur -59.0655 -32.5809 14.5125
rtibia 73.4301
rfoot -11.4683 4.17486
rtoes 4.1208
lfemur -18.1363 26.2494 -2.17947
ltibia 63.769
lfoot -25.1701 19.7066
ltoes -29.9111
1260
root -2.36582 14.208 14.0168 7.53253 50.0181 3.91041
lowerback 15.512 -0.1906 -8.41011
upperback -2.738 -1.71749 1.82925
thorax -11.5148 -0.160793 7.25458
lowerneck 4.41147 -14.1761 -15.3328
upperneck 0.0604528 -19.7126 12.2296
head 2.03136 -9.96564 5.46751
rclavicle -1.01157e-013 4.77083e-015
rhumerus 3.59768 -14.8783 -62.4026
rradius 86.0564
rwrist 22.4434
rhand -46.4649 -37.5447
rfingers 7.12502
rthumb -19.1928 -66.6177
lclavicle -1.01157e-013 4.77083e-015
lhumerus -56.6515 -39.0604 115.568
lradius 106.749
lwrist 74.7574
lhand 17.3755 44.4118
lfingers 7.12502
lthumb 42.0828 -291.026
rfemur -59.0927 -32.8682 14.7378
rtibia 73.2061
rfoot -11.3114 4.02194
rtoes 4.64173
lfemur -18.2307 26.3999 -2.16829
ltibia 64.0591
lfoot -25.3104 19.718
ltoes -29.744
1261
root -2.35472 14.2038 13.9845 7.35093 50.0158 3.7544
lowerback 15.5022 -0.170058 -8.33754
upperback -2.753 -1.67545 1.82787
thorax -11.5353 -0.144294 7.2011
lowerneck 4.47656 -14.1787 -15.3295
upperneck 0.102198 -19.7272 12.2261
head 2.03481 -9.97517 5.46843
rclavicle -1.07791e-013 -6.71892e-014
rhumerus 3.69942 -14.9801 -62.457
rradius 85.8962
rwrist 22.6416
rhand -46.4343 -37.5467
rfingers 7.12502
rthumb -19.1634 -66.6226
lclavicle -1.07791e-013 -6.71892e-014
lhumerus -56.5963 -39.08 115.553
lradius 106.675
lwrist 74.8439
lhand 17.2111 44.4809
lfingers 7.12502
lthumb 41.9287 -290.905
rfemur -59.0471 -33.1204 14.9089
rtibia 72.9372
rfoot -11.2455 3.9426
rtoes 4.86403
lfemur -18.3431 26.5211 -2.15767
ltibia 64.3508
lfoot -25.4301 19.7477
ltoes -29.5753
